<?xml version="1.0" encoding="UTF-8"?>
<svg width="220px" height="62px" viewBox="0 0 220 62" version="1.1" xmlns="http://www.w3.org/2000/svg" xmlns:xlink="http://www.w3.org/1999/xlink">
    <!-- Generator: Sketch 43.1 (39012) - http://www.bohemiancoding.com/sketch -->
    <title>evolutio</title>
    <desc>Created with Sketch.</desc>
    <defs></defs>
    <g id="Page-1" stroke="none" stroke-width="1" fill="none" fill-rule="evenodd">
        <path d="M32.8007812,44.1210938 L8.26171875,44.1210938 C8.4726573,46.9336078 9.38671066,49.1718667 11.0039062,50.8359375 C12.6211018,52.4765707 14.6952998,53.296875 17.2265625,53.296875 C19.1953223,53.296875 20.8242123,52.8281297 22.1132812,51.890625 C23.3789126,50.9531203 24.8203044,49.2187627 26.4375,46.6875 L33.1171875,50.4140625 C32.0859323,52.1718838 30.9960995,53.6777281 29.8476562,54.9316406 C28.699213,56.1855531 27.4687566,57.2167928 26.15625,58.0253906 C24.8437434,58.8339884 23.4257889,59.4257794 21.9023438,59.8007812 C20.3788986,60.1757831 18.7265714,60.3632812 16.9453125,60.3632812 C11.835912,60.3632812 7.73439047,58.7226727 4.640625,55.4414062 C1.54685953,52.1367022 0,47.7539336 0,42.2929688 C0,36.8788792 1.499985,32.4961105 4.5,29.1445312 C7.52345262,25.8398272 11.531225,24.1875 16.5234375,24.1875 C21.5625252,24.1875 25.5468604,25.7929527 28.4765625,29.0039062 C31.382827,32.1914222 32.8359375,36.6093468 32.8359375,42.2578125 L32.8007812,44.1210938 Z M24.6796875,37.6523438 C23.5781195,33.4335727 20.9179898,31.3242188 16.6992188,31.3242188 C15.7382764,31.3242188 14.8359417,31.4707017 13.9921875,31.7636719 C13.1484333,32.0566421 12.3808628,32.4785129 11.6894531,33.0292969 C10.9980434,33.5800809 10.4062525,34.2421836 9.9140625,35.015625 C9.42187254,35.7890664 9.04687629,36.6679638 8.7890625,37.6523438 L24.6796875,37.6523438 Z M40.4726562,25.1367188 L49.3320312,44.3671875 L58.15625,25.1367188 L67.0507812,25.1367188 L49.2617188,61.734375 L31.6132812,25.1367188 L40.4726562,25.1367188 Z M65.40625,42.0117188 C65.40625,37.0663815 67.1757636,32.8593923 70.7148438,29.390625 C74.2539239,25.9218577 78.5663808,24.1875 83.6523438,24.1875 C88.7617443,24.1875 93.0976384,25.9335763 96.6601562,29.4257812 C100.175799,32.9179862 101.933594,37.2070058 101.933594,42.2929688 C101.933594,47.4258069 100.16408,51.7265452 96.625,55.1953125 C93.0624822,58.6406422 88.6914321,60.3632812 83.5117188,60.3632812 C78.3788806,60.3632812 74.0781423,58.6054863 70.609375,55.0898438 C67.1406077,51.6210764 65.40625,47.261745 65.40625,42.0117188 Z M73.4921875,42.1523438 C73.4921875,45.5742359 74.4062409,48.28124 76.234375,50.2734375 C78.1093844,52.2890726 80.5820159,53.296875 83.6523438,53.296875 C86.7461092,53.296875 89.2187407,52.3007912 91.0703125,50.3085938 C92.9218843,48.3163963 93.8476562,45.6562666 93.8476562,42.328125 C93.8476562,38.9999834 92.9218843,36.3398537 91.0703125,34.3476562 C89.1953031,32.3320212 86.7226716,31.3242188 83.6523438,31.3242188 C80.6288911,31.3242188 78.1796969,32.3320212 76.3046875,34.3476562 C74.4296781,36.3632913 73.4921875,38.9648278 73.4921875,42.1523438 Z M114.210938,4.84943958 L114.210938,59.3789062 L106.300781,59.3789062 L106.300781,0 L114.210938,4.84943958 Z M128.140625,25.1367188 L128.140625,44.7890625 C128.140625,50.4609659 130.378884,53.296875 134.855469,53.296875 C139.332054,53.296875 141.570313,50.4609659 141.570313,44.7890625 L141.570313,25.1367188 L149.480469,25.1367188 L149.480469,44.9648438 C149.480469,47.707045 149.140628,50.0742088 148.460938,52.0664062 C147.804684,53.8476652 146.667977,55.4531179 145.050781,56.8828125 C142.378893,59.2031366 138.980489,60.3632812 134.855469,60.3632812 C130.753886,60.3632812 127.367201,59.2031366 124.695313,56.8828125 C123.054679,55.4531179 121.894535,53.8476652 121.214844,52.0664062 C120.55859,50.4726483 120.230469,48.1054845 120.230469,44.9648438 L120.230469,25.1367188 L128.140625,25.1367188 Z M163.621094,32.5195312 L163.621094,59.3789062 L155.710938,59.3789062 L155.710938,32.5195312 L152.335938,32.5195312 L152.335938,25.1367188 L155.710938,25.1367188 L155.710938,12.5859375 L163.621094,12.5859375 L163.621094,25.1367188 L169.773438,25.1367188 L169.773438,32.5195312 L163.621094,32.5195312 Z M179.0625,25.1367188 L179.0625,59.3789062 L171.152344,59.3789062 L171.152344,25.1367188 L179.0625,25.1367188 Z M169.957031,10.8984375 C169.957031,9.51561809 170.460932,8.32031754 171.46875,7.3125 C172.476568,6.30468246 173.683587,5.80078125 175.089844,5.80078125 C176.519538,5.80078125 177.738276,6.30468246 178.746094,7.3125 C179.753911,8.29687992 180.257812,9.5038991 180.257812,10.9335938 C180.257812,12.3632884 179.753911,13.5820262 178.746094,14.5898438 C177.761714,15.5976613 176.554695,16.1015625 175.125,16.1015625 C173.695305,16.1015625 172.476568,15.5976613 171.46875,14.5898438 C170.460932,13.5820262 169.957031,12.3515698 169.957031,10.8984375 Z M183.464844,42.0117188 C183.464844,37.0663815 185.234357,32.8593923 188.773438,29.390625 C192.312518,25.9218577 196.624975,24.1875 201.710938,24.1875 C206.820338,24.1875 211.156232,25.9335763 214.71875,29.4257812 C218.234393,32.9179862 219.992188,37.2070058 219.992188,42.2929688 C219.992188,47.4258069 218.222674,51.7265452 214.683594,55.1953125 C211.121076,58.6406422 206.750026,60.3632812 201.570312,60.3632812 C196.437474,60.3632812 192.136736,58.6054863 188.667969,55.0898438 C185.199201,51.6210764 183.464844,47.261745 183.464844,42.0117188 Z M191.550781,42.1523438 C191.550781,45.5742359 192.464835,48.28124 194.292969,50.2734375 C196.167978,52.2890726 198.64061,53.296875 201.710938,53.296875 C204.804703,53.296875 207.277334,52.3007912 209.128906,50.3085938 C210.980478,48.3163963 211.90625,45.6562666 211.90625,42.328125 C211.90625,38.9999834 210.980478,36.3398537 209.128906,34.3476562 C207.253897,32.3320212 204.781265,31.3242188 201.710938,31.3242188 C198.687485,31.3242188 196.238291,32.3320212 194.363281,34.3476562 C192.488272,36.3632913 191.550781,38.9648278 191.550781,42.1523438 Z" id="evolutio" fill="#3AB982"></path>
    </g>
</svg>